<?xml version="1.0" encoding="UTF-8" standalone="no"?>
<svg version="1.1" width="432" height="90.382797" viewBox="0 0 432 90.382799" xmlns="http://www.w3.org/2000/svg">
    <path d="m 148.838,75.6086 c 0,5.63943 -1.252,9.26912 -5.259,11.51834 v 0.75195 h 24.791 v -0.75195 c -4.007,-2.24922 -5.255,-5.87891 -5.255,-11.51834 V 27.539 c 0,-5.5078 1.248,-9.1343 5.255,-11.5113 v -0.6293 h -24.791 v 0.6293 c 4.007,2.377 5.259,6.0035 5.259,11.5113 z m 110.287,12.27029 3.503,-15.26949 -0.751,-0.252 c -4.259,6.634 -10.768,9.38868 -20.409,9.38868 H 213.181 V 28.1719 c 0,-6.1407 1.504,-9.643 5.756,-12.1442 v -0.6293 h -24.905 l -0.127,0.6293 c 3.881,2.377 5.004,5.8801 5.004,10.8856 v 49.325 c 0,5.13786 -1.123,8.51169 -5.004,10.88864 l 0.127,0.75195 z m 120.797,-0.75195 0.121,0.75195 h 25.045 v -0.75195 c -4.137,-2.37695 -5.385,-6.1375 -5.385,-12.14334 V 57.9609 L 421.735,26.5406 C 425.742,20.7828 429.12,17.2758 432,16.0277 v -0.6293 h -19.53 v 0.6293 c 3.506,2.0028 4.001,6.8844 0.253,12.261 L 396.575,51.5793 378.796,25.4137 c -2.756,-4.0082 -2.255,-7.6383 1.006,-9.386 V 15.3984 H 352.38 v 0.6293 c 3.261,1.3727 5.264,3.2481 8.764,8.2574 l 24.286,34.6805 v 16.018 c 0,6.00584 -1.376,9.76639 -5.508,12.14334 M 292.674,46.4465 V 21.5351 h 26.037 c 11.891,0 16.398,1.8754 20.656,7.8852 l 0.751,-0.2508 -1.507,-13.7711 H 273.52 l -0.125,0.6293 c 3.884,2.377 5.011,5.8801 5.011,10.8856 v 49.325 c 0,5.13786 -1.127,8.51169 -5.011,10.88864 l 0.125,0.75195 h 68.474 l 2.508,-14.76759 -0.635,-0.2508 c -4.379,5.8844 -9.632,8.88558 -21.401,8.88558 H 292.674 V 52.3262 h 19.91 c 8.503,0 12.761,1.3769 15.015,5.0097 h 0.874 v -15.775 l -0.874,-0.1234 c -2.254,3.6293 -6.512,5.009 -15.015,5.009 z M 93.1355,90.3828 h 0.6262 L 124.554,13.6465 c 3.005,-7.3852 5.759,-11.0184 8.515,-12.6391 V 0.2543 H 114.54 v 0.7531 c 3.883,2.1234 4.757,7.8856 2.127,14.5145 L 97.7652,62.8418 72.0973,0 H 71.4797 L 44.4375,62.7187 25.0313,13.3937 C 22.7809,7.5133 23.407,3.1308 27.0336,1.0074 V 0.2543 H 0 v 0.7531 c 2.87969,1.5 5.00391,4.6246 7.63438,11.0125 L 39.4336,90.3828 h 0.6211 L 66.8434,26.9133 93.1355,90.3828"/>
</svg>
